<svg xmlns="http://www.w3.org/2000/svg" version="1.1" xmlns:xlink="http://www.w3.org/1999/xlink" xmlns:svgjs="http://svgjs.com/svgjs" width="1366" height="768" preserveAspectRatio="none" viewBox="0 0 1366 768">
    <g mask="url(&quot;#SvgjsMask1048&quot;)" fill="none">
        <rect width="1366" height="768" x="0" y="0" fill="rgba(0, 30, 61, 1)"></rect>
        <path d="M54 768L822 0L933 0L165 768z" fill="url(#SvgjsLinearGradient1049)"></path>
        <path d="M485.78000000000003 768L1253.78 0L1703.78 0L935.78 768z" fill="url(#SvgjsLinearGradient1049)"></path>
        <path d="M1318 768L550 0L284.5 0L1052.5 768z" fill="url(#SvgjsLinearGradient1050)"></path>
        <path d="M836.22 768L68.22000000000003 0L-45.77999999999997 0L722.22 768z" fill="url(#SvgjsLinearGradient1050)"></path>
        <path d="M920.4470414280463 768L1366 322.4470414280463L1366 768z" fill="url(#SvgjsLinearGradient1049)"></path>
        <path d="M0 768L445.5529585719537 768L 0 322.4470414280463z" fill="url(#SvgjsLinearGradient1050)"></path>
    </g>
    <defs>
        <mask id="SvgjsMask1048">
            <rect width="1366" height="768" fill="#ffffff"></rect>
        </mask>
        <linearGradient x1="0%" y1="100%" x2="100%" y2="0%" id="SvgjsLinearGradient1049">
            <stop stop-color="rgba(44, 112, 255, 0.2)" offset="0"></stop>
            <stop stop-opacity="0" stop-color="rgba(44, 112, 255, 0.2)" offset="0.66"></stop>
        </linearGradient>
        <linearGradient x1="100%" y1="100%" x2="0%" y2="0%" id="SvgjsLinearGradient1050">
            <stop stop-color="rgba(44, 112, 255, 0.2)" offset="0"></stop>
            <stop stop-opacity="0" stop-color="rgba(44, 112, 255, 0.2)" offset="0.66"></stop>
        </linearGradient>
    </defs>
</svg>