<svg width="23" height="23" viewBox="0 0 23 23" fill="none" xmlns="http://www.w3.org/2000/svg">
<rect x="0.5" y="0.5" width="22" height="22" rx="3.5" fill="#4FD5FF" stroke="black"/>
<path d="M11.5 16C13.9853 16 16 13.9853 16 11.5C16 9.01472 13.9853 7 11.5 7C9.01472 7 7 9.01472 7 11.5C7 13.9853 9.01472 16 11.5 16Z" fill="black"/>
<path d="M18.0852 5.13068C18.0852 5.45455 17.9773 5.77841 17.7614 6.10227L16.25 7.61364L15.2784 6.75L17.6534 4.375C17.9773 4.48295 18.0852 4.80682 18.0852 5.13068V5.13068ZM17.5455 10.8523H21C21 11.1761 20.892 11.5 20.5682 11.8239C20.2443 12.1477 20.0284 12.2557 19.7045 12.2557H17.5455V10.8523ZM10.8523 5.45455V2C11.1761 2 11.5 2.10795 11.8239 2.43182C12.1477 2.75568 12.2557 2.97159 12.2557 3.29545V5.45455H10.8523V5.45455ZM17.7614 18.0852C17.4375 18.0852 17.1136 17.9773 16.8977 17.7614L15.3864 16.25L16.25 15.3864L18.625 17.7614C18.4091 17.9773 18.0852 18.0852 17.7614 18.0852V18.0852ZM5.23864 4.91477C5.5625 4.91477 5.88636 5.02273 6.10227 5.23864L7.61364 6.75L6.75 7.72159L4.375 5.23864C4.59091 5.02273 4.91477 4.91477 5.23864 4.91477ZM10.8523 17.5455H12.1477V21C11.8239 21 11.5 20.892 11.1761 20.5682C10.8523 20.2443 10.7443 20.0284 10.7443 19.7045L10.8523 17.5455V17.5455ZM3.29545 10.8523H5.45455V12.1477H2C2 11.8239 2.10795 11.5 2.43182 11.1761C2.75568 10.8523 2.97159 10.8523 3.29545 10.8523V10.8523ZM5.23864 16.8977L6.75 15.3864L7.61364 16.25L5.23864 18.625C5.02273 18.4091 4.91477 18.0852 4.91477 17.7614C4.91477 17.4375 5.02273 17.1136 5.23864 16.8977Z" fill="black"/>
</svg>
